<?xml version="1.0" encoding="UTF-8" standalone="no"?>
<svg
   xmlns:dc="http://purl.org/dc/elements/1.1/"
   xmlns:cc="http://creativecommons.org/ns#"
   xmlns:rdf="http://www.w3.org/1999/02/22-rdf-syntax-ns#"
   xmlns:svg="http://www.w3.org/2000/svg"
   xmlns="http://www.w3.org/2000/svg"
   xmlns:sodipodi="http://sodipodi.sourceforge.net/DTD/sodipodi-0.dtd"
   xmlns:inkscape="http://www.inkscape.org/namespaces/inkscape"
   inkscape:version="1.0 (4035a4fb49, 2020-05-01)"
   sodipodi:docname="gh.svg"
   xml:space="preserve"
   style="enable-background:new 0 0 64 64;"
   viewBox="0 0 64 64"
   y="0px"
   x="0px"
   id="lni_lni-github-original"
   version="1.1"
   height="52"
   width="52"
   fill="#000000"><metadata
   id="metadata9"><rdf:RDF><cc:Work
       rdf:about=""><dc:format>image/svg+xml</dc:format><dc:type
         rdf:resource="http://purl.org/dc/dcmitype/StillImage" /></cc:Work></rdf:RDF></metadata><defs
   id="defs7" /><sodipodi:namedview
   inkscape:current-layer="lni_lni-github-original"
   inkscape:window-maximized="1"
   inkscape:window-y="-9"
   inkscape:window-x="-9"
   inkscape:cy="31.888469"
   inkscape:cx="5.9416592"
   inkscape:zoom="7.9807692"
   showgrid="false"
   id="namedview5"
   inkscape:window-height="1001"
   inkscape:window-width="1920"
   inkscape:pageshadow="2"
   inkscape:pageopacity="0"
   guidetolerance="10"
   gridtolerance="10"
   objecttolerance="10"
   borderopacity="1"
   bordercolor="#666666"
   pagecolor="#ffffff" />
<path
   style="fill:#ffffff"
   id="path2"
   d="M32,1.8c-17,0-31,13.8-31,31C1,46.4,9.9,58,22.3,62.2c1.6,0.3,2.1-0.7,2.1-1.4c0-0.7,0-2.7-0.1-5.4  c-8.6,2-10.4-4.2-10.4-4.2c-1.4-3.5-3.5-4.5-3.5-4.5c-2.8-2,0.1-2,0.1-2c3.1,0.1,4.8,3.2,4.8,3.2c2.7,4.8,7.3,3.4,9,2.5  c0.3-2,1.1-3.4,2-4.2c-6.8-0.7-14.1-3.4-14.1-15.2c0-3.4,1.3-6.1,3.2-8.2c-0.3-0.7-1.4-3.9,0.3-8.2c0,0,2.7-0.8,8.6,3.2  c2.5-0.7,5.1-1.1,7.8-1.1c2.7,0,5.4,0.3,7.8,1.1c5.9-3.9,8.5-3.2,8.5-3.2c1.7,4.2,0.7,7.5,0.3,8.2c2,2.1,3.2,4.9,3.2,8.2  c0,11.8-7.3,14.5-14.1,15.2c1.1,1,2.1,3,2.1,5.8c0,4.2-0.1,7.5-0.1,8.5c0,0.8,0.6,1.7,2.1,1.4C54.1,57.8,63,46.3,63,32.6  C62.9,15.6,49,1.8,32,1.8z" />
</svg>
