<?xml version="1.0" encoding="UTF-8" standalone="no"?>
<svg
   xmlns:dc="http://purl.org/dc/elements/1.1/"
   xmlns:cc="http://creativecommons.org/ns#"
   xmlns:rdf="http://www.w3.org/1999/02/22-rdf-syntax-ns#"
   xmlns:svg="http://www.w3.org/2000/svg"
   xmlns="http://www.w3.org/2000/svg"
   xmlns:sodipodi="http://sodipodi.sourceforge.net/DTD/sodipodi-0.dtd"
   xmlns:inkscape="http://www.inkscape.org/namespaces/inkscape"
   inkscape:version="1.0 (4035a4fb49, 2020-05-01)"
   sodipodi:docname="ln.svg"
   xml:space="preserve"
   style="enable-background:new 0 0 64 64;"
   viewBox="0 0 64 64"
   y="0px"
   x="0px"
   id="lni_lni-linkedin-original"
   version="1.1"
   height="52"
   width="52"
   fill="#000000"><metadata
   id="metadata9"><rdf:RDF><cc:Work
       rdf:about=""><dc:format>image/svg+xml</dc:format><dc:type
         rdf:resource="http://purl.org/dc/dcmitype/StillImage" /></cc:Work></rdf:RDF></metadata><defs
   id="defs7" /><sodipodi:namedview
   inkscape:current-layer="lni_lni-linkedin-original"
   inkscape:window-maximized="1"
   inkscape:window-y="-9"
   inkscape:window-x="-9"
   inkscape:cy="42.127734"
   inkscape:cx="15.336827"
   inkscape:zoom="7.9807692"
   showgrid="false"
   id="namedview5"
   inkscape:window-height="1001"
   inkscape:window-width="1920"
   inkscape:pageshadow="2"
   inkscape:pageopacity="0"
   guidetolerance="10"
   gridtolerance="10"
   objecttolerance="10"
   borderopacity="1"
   bordercolor="#666666"
   pagecolor="#ffffff" />
<path
   style="fill:#ffffff"
   id="path2"
   d="M58.5,1H5.6C3.1,1,1.1,3,1.1,5.5v53c0,2.4,2,4.5,4.5,4.5h52.7c2.5,0,4.5-2,4.5-4.5V5.4C63,3,61,1,58.5,1z M19.4,53.7h-9.1  V24.2h9.1V53.7z M14.8,20.1c-3,0-5.3-2.4-5.3-5.3s2.4-5.3,5.3-5.3s5.3,2.4,5.3,5.3S17.9,20.1,14.8,20.1z M53.9,53.7h-9.1V39.4  c0-3.4-0.1-7.9-4.8-7.9c-4.8,0-5.5,3.8-5.5,7.6v14.6h-9.1V24.2h8.9v4.1h0.1c1.3-2.4,4.2-4.8,8.7-4.8c9.3,0,11,6,11,14.2v16H53.9z" />
</svg>
